<?xml version="1.0" encoding="utf-8"?>
<!-- Generator: Adobe Illustrator 27.7.0, SVG Export Plug-In . SVG Version: 6.00 Build 0)  -->
<svg version="1.1" id="レイヤー_1" xmlns="http://www.w3.org/2000/svg" xmlns:xlink="http://www.w3.org/1999/xlink" x="0px"
	 y="0px" viewBox="0 0 510.24 70.05" style="enable-background:new 0 0 510.24 70.05;" xml:space="preserve">
<style type="text/css">
	.st0{fill:#FFFFFF;}
</style>
<g>
	<g>
		<polyline class="st0" points="503.91,64.14 504.42,64.14 504.58,64.11 504.69,64.04 504.72,63.98 505.7,61.37 506.03,60.45 
			507.23,57.16 507.7,55.83 507.71,55.69 507.68,55.65 507.53,55.6 504.91,55.61 504.58,55.58 504.32,55.61 504.09,55.59 
			500.33,55.6 499.8,55.59 496.93,55.6 496.68,55.58 496.44,55.6 496.19,55.6 495.88,55.6 495.39,55.56 494.85,55.39 494.48,55.21 
			494.12,54.94 493.83,54.6 493.56,54.15 493.42,53.67 493.4,53.23 493.47,52.75 493.52,52.46 494.07,50.94 494.67,49.29 
			494.93,48.57 495.85,46.08 496.17,45.23 496.47,44.37 497.63,41.21 498.2,39.63 498.65,38.38 499.12,37.14 499.47,36.15 
			500.31,33.85 501.2,31.42 502.06,29.05 502.54,27.74 503.02,26.42 503.51,25.11 504.32,22.88 505.23,20.38 506.2,17.67 
			506.47,16.95 507.41,14.39 508.25,12.09 508.92,10.24 509.13,9.66 509.89,7.54 510.19,6.67 510.17,6.61 510.11,6.56 509.7,6.53 
			507.19,6.53 506.71,6.55 506.27,6.53 505.26,6.54 502.48,6.55 497.98,6.56 497.33,6.59 497.22,6.66 496.9,7.51 496.25,9.28 
			495.17,12.24 494.76,13.35 494.36,14.48 493.63,16.44 492.81,18.67 492.01,20.92 491.38,22.63 490.97,23.74 490.51,24.99 
			489.67,27.28 488.87,29.45 488.21,31.3 487,34.57 486.4,36.22 485.92,37.53 485.44,38.85 485.34,39.11 484.57,41.2 483.92,42.97 
			483.61,43.84 483.2,44.95 482.91,45.74 482.58,46.66 481.7,49.02 481.37,49.94 481.15,50.53 480.79,51.51 479.88,54.01 
			479.34,55.54 479.01,56.64 478.99,56.98 478.94,57.41 478.94,57.85 479.04,58.93 479.11,59.22 479.43,60.17 479.6,60.53 
			480.02,61.29 480.75,62.19 481.17,62.58 481.76,63.06 482.4,63.4 482.88,63.65 483.91,63.96 484.14,64 485.29,64.14 487.78,64.13 
			488.71,64.14 488.97,64.14 489.19,64.14 492.9,64.12 493.23,64.15 493.66,64.13 493.89,64.14 497.82,64.12 498.25,64.13 
			502.38,64.12 502.89,64.14 503.14,64.12 503.38,64.13 503.91,64.14 		"/>
	</g>
	<g>
		<polyline class="st0" points="463.14,64.05 463.76,64.04 463.89,63.98 463.92,63.92 464.34,62.82 465.02,60.99 465.77,58.96 
			466.64,56.59 467.42,54.5 468.1,52.67 468.75,50.89 469.55,48.74 469.7,48.34 470.2,46.97 471.1,44.55 471.3,44.02 472.02,42.06 
			472.47,40.8 472.94,39.57 473.74,37.41 474.28,35.96 474.76,34.66 475.8,31.84 476.77,29.21 476.87,28.96 476.97,28.7 
			477.31,27.78 477.54,27.12 477.97,26.02 478.44,24.7 478.86,23.59 479.2,22.68 479.93,20.71 481.1,17.5 482.23,14.49 
			482.64,13.38 483.02,12.32 483.22,11.8 483.43,11.21 484.11,9.37 484.23,9.04 485.02,6.87 485.05,6.72 485.03,6.66 484.97,6.61 
			484.36,6.58 481.45,6.6 481.2,6.57 478.51,6.58 478.17,6.56 477.85,6.59 477.51,6.58 474.43,6.58 474,6.56 471.58,6.57 
			471.14,6.56 470.92,6.58 470.51,6.56 469.03,6.56 468.91,6.63 468.88,6.68 468.73,6.99 468.2,8.42 466.99,11.7 466.05,14.17 
			465.65,15.22 464.98,17.05 463.99,19.74 463.43,21.24 463.06,22.23 462.8,22.95 462,25.1 461.5,26.41 461.04,27.65 460.5,29.08 
			460,30.46 459.58,31.57 458.73,33.87 458.32,34.98 457.73,36.55 457.3,37.72 456.86,38.91 456.55,39.75 456.26,40.54 
			455.85,41.65 455.36,42.97 454.49,45.32 454.08,46.44 452.87,49.71 452.43,50.89 452.28,51.28 451.51,53.38 451.07,54.55 
			450.66,55.67 449.93,57.64 449.51,58.74 448.77,60.78 448.57,61.3 448.05,62.75 447.72,63.67 447.64,63.94 447.67,63.99 
			447.73,64.02 448.07,64.04 448.51,64.03 448.75,64.05 450.72,64.05 451.15,64.06 451.9,64.05 455.33,64.06 455.79,64.07 
			456.13,64.05 456.28,64.05 459.69,64.05 460.41,64.07 460.84,64.05 461.08,64.06 463.14,64.05 		"/>
	</g>
	<g>
		<polyline class="st0" points="348.72,64.19 349.35,64.18 349.47,64.12 349.52,64 349.94,62.89 350.88,60.33 351.14,59.61 
			351.55,58.5 351.98,57.3 352.48,55.92 352.49,55.78 352.45,55.73 352.31,55.68 351.24,55.68 350.81,55.67 349.47,55.66 
			349.04,55.65 348.74,55.65 348.61,55.6 348.58,55.54 348.69,55.13 349.33,53.35 349.76,52.17 350.2,50.98 350.99,48.81 
			352.2,45.54 353.31,42.52 353.53,41.94 353.81,41.14 354.44,39.43 355.09,37.66 355.75,35.9 356.47,33.92 357.45,31.23 
			358.02,29.65 358.28,28.93 359.5,25.65 360.07,24.07 360.36,23.29 361,21.49 361,21.33 360.95,21.28 360.73,21.24 358.66,21.25 
			358.23,21.24 357.91,21.26 357.67,21.24 355.06,21.25 354.63,21.23 351.76,21.24 351.33,21.22 348.55,21.23 348.31,21.21 
			347.47,21.21 347.34,21.25 347.24,21.33 347.18,21.46 347.08,21.72 346.7,22.77 345.72,25.38 344.76,28 344.61,28.39 
			344.25,29.38 343.45,31.55 342.93,32.99 342.22,34.89 341.67,36.4 341.57,36.66 340.45,39.67 339.56,42.1 338.98,43.67 
			338.69,44.46 338.59,44.72 337.39,48 336.83,49.51 336.4,50.7 336.2,51.21 335.71,52.6 335.26,53.77 334.38,56.21 333.56,58.44 
			333.28,59.32 333.22,59.8 333.22,60.42 333.25,60.93 333.29,61.16 333.5,61.77 333.82,62.35 334.12,62.77 334.42,63.1 
			335.02,63.57 335.68,63.9 336.23,64.08 336.76,64.17 337.66,64.19 341.01,64.18 341.44,64.2 344.04,64.19 344.47,64.21 
			344.79,64.18 345.04,64.21 348.72,64.19 		"/>
	</g>
	<g>
		<polyline class="st0" points="422.3,63.61 422.78,63.6 423.11,63.57 424.48,63.39 425.54,63.19 426.36,63.01 427.56,62.68 
			428.75,62.24 430.12,61.63 431.41,60.93 432.34,60.33 432.73,60.09 432.97,59.88 433.59,59.41 434.16,58.91 434.79,58.37 
			435.28,57.87 436.06,57.02 436.9,55.98 437.68,54.87 438.42,53.63 439.05,52.38 439.63,50.98 440.38,48.96 440.98,47.32 
			441.86,44.96 442.36,43.57 442.89,42.12 443.7,39.89 444.3,38.25 444.52,37.66 444.95,36.48 446.16,33.2 446.62,31.95 
			447.52,29.45 447.93,28.33 448.32,27.28 448.59,26.56 449.09,25.18 449.53,24.01 450.03,22.62 450.68,20.85 450.82,20.36 
			450.8,20.28 450.77,20.23 450.3,19.99 449.31,19.44 448.69,18.99 448.05,18.46 447.42,17.74 447.11,17.32 446.5,16.23 
			446.28,15.81 446.05,15.13 445.81,14.38 445.8,13.95 445.75,13.72 445.73,13.38 445.69,12.97 445.7,12.46 445.72,12.03 
			445.77,11.8 445.78,11.37 445.8,11.12 445.82,10.98 445.8,10.92 445.68,10.86 443.52,10.87 443.09,10.86 442.34,10.86 
			438.48,10.87 438.23,10.86 435.15,10.87 434.72,10.84 434.49,10.87 434.22,10.85 430.23,10.87 429.8,10.86 426.93,10.86 
			426.5,10.85 426.35,10.86 426.11,10.85 422.43,10.86 422.18,10.84 421.63,10.86 421.32,10.84 421.17,10.87 420.92,10.86 
			417.87,10.86 417.54,10.84 417.2,10.87 416.96,10.85 414.63,10.86 412.7,10.85 412.36,10.84 407.98,10.86 407.75,10.86 
			407.51,10.86 405.42,10.86 400.92,10.89 400.79,10.93 400.75,10.98 399.85,13.41 399.3,14.92 399.09,15.5 398.6,16.82 
			398.33,17.63 398.34,17.8 398.38,17.85 398.78,17.89 402.1,17.88 402.32,17.87 402.79,17.88 403.1,17.87 403.26,17.89 
			404.51,17.88 409.01,17.85 409.35,17.88 413.77,17.86 414.2,17.88 414.63,17.86 414.86,17.87 418.82,17.85 419.07,17.87 
			419.46,17.86 422.54,17.85 422.97,17.87 423.72,17.86 426.41,17.86 426.84,17.87 427.21,17.87 430.25,17.86 430.5,17.88 
			432.94,17.88 433.09,17.91 433.14,17.95 433.16,18.02 433.16,18.1 433.05,18.44 432.3,20.48 431.54,22.59 430.74,24.75 
			430.18,26.26 429.49,28.16 428.94,29.59 428.81,30 428.25,31.5 427.26,34.19 426.76,35.57 426.18,37.14 425.6,38.72 425.23,39.7 
			424.54,41.61 424.32,42.19 424,43.05 423.11,45.48 422.87,46.14 422.17,48.03 421.71,49.28 421.03,50.75 420.76,51.2 
			420.55,51.52 420.08,52.23 419.41,53 418.84,53.6 417.7,54.54 416.29,55.38 414.64,56.07 413.63,56.32 413.05,56.47 411.48,56.62 
			410.56,56.62 410.11,56.64 409.87,56.61 406.45,56.63 402.07,56.66 401.74,56.64 401.27,56.65 400.94,56.65 399.97,56.66 
			398.35,56.65 394,56.68 389.5,56.71 389.26,56.7 388.93,56.7 384.47,56.73 384.35,56.79 383.54,58.94 383.15,59.99 382.7,61.24 
			382.35,62.23 381.88,63.56 381.89,63.61 381.93,63.66 382.07,63.7 383.34,63.69 384.44,63.71 388.94,63.68 389.38,63.69 
			392.78,63.69 397.27,63.67 397.79,63.67 398.22,63.66 398.8,63.66 399.28,63.66 399.61,63.65 399.95,63.64 400.2,63.66 
			400.64,63.66 401.06,63.63 401.22,63.65 402.65,63.65 407.03,63.62 407.36,63.64 407.61,63.62 407.93,63.64 412.43,63.61 
			412.76,63.64 417.14,63.61 418.24,63.62 422.3,63.61 		"/>
	</g>
	<g>
		<polyline class="st0" points="315.93,64.26 316.55,64.24 317.31,64.19 317.69,64.12 318.32,63.94 319.07,63.61 319.6,63.32 
			320.23,62.79 320.77,62.15 321.17,61.56 321.43,61.02 321.97,59.58 322.29,58.74 322.38,58.46 322.75,57.49 322.97,56.9 
			323.53,55.39 324.2,53.56 324.93,51.59 325.12,51.07 325.55,49.88 326.03,48.57 326.52,47.26 327.03,45.89 327.49,44.65 
			328.07,43.08 328.82,41.04 329.08,40.32 329.63,38.8 330.22,37.23 330.98,35.13 332.03,32.23 332.56,30.78 333.64,27.83 
			334,26.84 334.65,25.07 334.87,24.48 336.07,21.19 336.49,20 337.35,17.71 337.68,16.78 337.99,15.94 338.76,13.83 338.87,13.5 
			338.98,13.25 339.7,11.28 340.08,10.21 340.1,10.07 340.06,10.02 340.01,9.99 338.93,9.97 338.57,9.96 334.14,9.99 333.72,10.02 
			333.56,10 333.31,10.01 333,9.99 332.67,10.03 332.43,10.01 331.46,10.02 331.16,10.03 330.72,10.03 329.93,10.04 329.69,10.02 
			326.45,10.04 324.8,10.03 323.81,10.03 323.57,10.05 323.3,10.05 323.14,10.08 323.1,10.12 323.06,10.18 322.59,11.41 
			321.79,13.57 321.23,15.08 320.79,16.25 320.36,17.44 319.15,20.71 318.83,21.55 318.31,23 317.79,24.37 316.9,26.8 316.07,29.02 
			314.86,32.31 314.5,33.28 314.26,33.94 313.6,35.71 313.03,37.29 312.46,38.79 312.2,39.51 312.08,39.84 311.47,41.48 
			310.73,43.51 310.49,44.17 310.19,44.95 309.83,45.93 309.04,48.1 308.67,49.08 308.28,50.13 308.03,50.78 307.89,51.17 
			307.29,52.81 307.07,53.41 306.32,55.43 306.22,55.6 306.09,55.66 302.94,55.67 302.8,55.72 302.76,55.77 302.64,56.09 
			302.14,57.39 301.7,58.57 301.1,60.21 300.75,61.12 299.71,63.94 299.69,64.1 299.72,64.17 299.77,64.21 300.28,64.23 
			303.06,64.23 303.6,64.25 303.85,64.23 304.09,64.24 306.42,64.23 306.85,64.25 307.09,64.24 307.63,64.24 310.68,64.24 
			311.12,64.25 311.89,64.24 315.39,64.24 315.61,64.24 315.93,64.26 		"/>
	</g>
	<g>
		<polyline class="st0" points="170.16,63.77 170.59,63.78 170.82,63.77 171.27,63.77 171.43,63.75 171.52,63.66 172.15,61.95 
			172.66,60.58 173.13,59.26 173.2,58.99 173.17,58.93 173.11,58.9 172.85,58.89 172.42,58.87 169.82,58.88 169,58.87 168.44,58.87 
			168.22,58.87 165.62,58.88 165.37,58.86 163.85,58.86 163.72,58.81 163.69,58.76 163.68,58.7 163.72,58.56 164.17,57.31 
			164.55,56.25 165.5,53.7 165.98,52.38 166.99,49.62 167.21,49.03 167.93,47.07 168.8,44.7 169.19,43.66 169.57,42.61 170.2,40.9 
			170.56,39.91 170.92,38.93 171.34,37.83 171.46,37.58 171.58,37.52 175.52,37.48 175.77,37.51 176.34,37.5 177.27,37.5 
			177.41,37.46 177.5,37.38 178.05,35.86 178.37,35.01 179.13,32.81 179.15,32.67 179.11,32.61 179.06,32.58 178.43,32.58 
			178.01,32.55 175.29,32.56 174.85,32.55 173.6,32.55 173.45,32.52 173.41,32.47 173.39,32.4 173.39,32.31 173.54,31.83 
			173.68,31.43 174.12,30.25 174.6,28.93 175.08,27.63 175.83,25.59 176.66,23.29 176.69,23.14 176.67,23.07 176.62,23.03 
			175.64,23 175.48,23.02 175.24,23 172.01,23.02 171.58,23 171.34,23.02 171.1,23 170.93,23 170.71,23 169.25,23 168.93,23.05 
			168.83,23.13 168.64,23.65 167.52,26.67 167.26,27.39 166.57,29.21 166.31,29.94 165.73,31.51 165.39,32.42 165.3,32.52 
			165.23,32.54 164.89,32.56 164.74,32.56 160.61,32.57 160.31,32.56 159.28,32.54 159.15,32.59 159.06,32.68 158.58,34 
			158.38,34.6 158.28,34.86 157.87,35.98 157.44,37.25 157.44,37.42 157.48,37.46 157.55,37.49 157.73,37.48 157.99,37.5 
			160.85,37.49 161.29,37.51 163.24,37.52 163.38,37.56 163.42,37.6 163.43,37.67 163.4,37.81 163.21,38.35 162.1,41.37 
			161.69,42.49 161.33,43.48 161.02,44.32 160.4,46.04 159.88,47.41 159.19,49.32 159.01,49.77 158.8,50.37 158.21,51.93 
			157.25,54.56 156.84,55.67 156.45,56.71 155.85,58.35 155.68,58.73 155.6,58.83 155.53,58.85 154.96,58.87 151.1,58.89 
			150.67,58.87 150.44,58.89 150.28,58.87 146.39,58.9 146.27,58.96 146.2,59.07 145.76,60.24 144.78,62.93 144.55,63.67 
			144.57,63.73 144.69,63.79 146.3,63.79 146.6,63.77 146.85,63.8 150.89,63.78 151.23,63.81 151.48,63.78 151.89,63.8 
			156.39,63.77 156.71,63.8 157.05,63.77 157.21,63.79 159.71,63.78 160.14,63.8 160.37,63.77 160.62,63.81 160.86,63.77 
			161.26,63.79 165.06,63.78 165.37,63.79 165.94,63.79 170.16,63.77 		"/>
	</g>
	<g>
		<polyline class="st0" points="84.21,63.85 84.15,64.02 84.08,64.13 83.95,64.18 83.29,64.18 81.41,64.18 81.17,64.17 80.79,64.16 
			79.23,64.02 78.07,63.83 77.09,63.55 76.39,63.27 76.1,63.11 75.49,62.73 75.06,62.36 74.74,62.04 74.35,61.44 74.17,60.99 
			74.04,60.49 73.93,59.88 73.93,59.22 73.93,58.42 74.01,57.77 74.39,55.74 74.62,54.53 74.83,53.31 75.19,51.43 75.37,50.53 
			75.58,49.32 75.76,48.33 76.02,46.97 76.13,46.45 76.31,45.47 76.48,44.57 76.63,43.73 76.72,43.2 77.1,41.16 77.52,38.98 
			77.6,38.52 77.87,37 78.16,35.59 78.39,34.29 78.39,34.03 78.35,33.98 78.29,33.95 78.03,33.94 77.7,33.91 75.96,33.92 
			75.62,33.91 73.39,33.9 73.08,33.91 72.83,33.89 70.59,33.9 70.35,33.88 67.56,33.89 67.31,33.87 64.99,33.87 64.77,33.88 
			64.52,33.85 61.71,33.87 61.03,33.85 58.02,33.86 57.59,33.85 57.02,33.85 56.21,33.85 56.06,33.82 56.02,33.77 56.01,33.7 
			56.3,32.82 57.28,30.12 57.69,29.01 57.73,28.96 57.87,28.92 60.56,28.9 60.81,28.92 61.06,28.91 61.29,28.92 63.83,28.9 
			64.08,28.93 67.37,28.91 67.8,28.93 70.08,28.92 70.32,28.95 70.81,28.93 73.04,28.93 73.29,28.95 76.1,28.94 76.54,28.96 
			79.22,28.95 79.35,28.9 79.41,28.77 79.56,28.03 80.14,25.03 80.2,24.72 80.43,23.52 80.65,22.31 80.71,22.18 80.81,22.11 
			82.12,22.1 82.85,22.11 85.27,22.1 85.7,22.11 88.48,22.11 88.62,22.15 88.65,22.21 88.67,22.29 88.63,22.52 88.54,23.06 
			88.26,24.66 87.89,26.62 87.71,27.6 87.57,28.36 87.5,28.75 87.52,28.9 87.56,28.95 87.63,28.98 88.43,28.98 88.87,28.99 
			89.93,29 90.07,28.96 90.16,28.86 90.27,28.61 90.97,26.71 91.75,24.54 92.1,23.62 92.15,23.58 92.21,23.56 92.66,23.55 
			93.09,23.53 93.33,23.53 93.68,23.55 98.18,23.51 98.61,23.53 99.77,23.53 99.92,23.56 99.95,23.59 99.97,23.65 99.81,24.13 
			99.33,25.45 98.13,28.74 97.63,30.12 97.19,31.3 97.09,31.46 97,31.65 96.75,32.11 96.48,32.47 96.23,32.76 95.85,33.1 
			95.47,33.36 94.87,33.66 94.62,33.76 93.94,33.9 93.54,33.93 93.23,33.94 93,33.93 92.47,33.94 92.25,33.94 88.41,33.94 
			87.87,33.96 87.62,33.94 86.77,33.96 86.63,33.98 86.53,34.08 86.48,34.21 86.33,35.04 85.9,37.29 85.73,38.19 85.6,38.88 
			85.51,39.42 85.42,39.86 85.38,40.09 84.92,42.58 84.76,43.41 84.61,44.16 84.15,46.74 83.87,48.17 83.77,48.78 83.57,49.83 
			83.45,50.52 82.87,53.61 82.7,54.52 82.58,55.12 82.41,56.11 82.31,56.64 82.07,58.01 82.07,58.27 82.16,58.54 82.3,58.75 
			82.45,58.88 82.97,59.16 83.43,59.24 83.87,59.25 84.3,59.26 84.68,59.26 85.58,59.27 85.73,59.3 85.78,59.34 85.78,59.49 
			85.55,60.16 85.05,61.54 84.85,62.07 84.21,63.85 		"/>
	</g>
	<g>
		<polyline class="st0" points="141.29,63.34 141.17,63.69 141.07,63.77 136.85,63.81 136.6,63.79 136.36,63.81 136.13,63.79 
			133.7,63.81 133.39,63.76 133.33,63.72 133.31,63.66 133.41,63.31 133.96,61.8 134.35,60.75 134.73,59.7 135.43,57.79 
			135.91,56.47 136.44,55.03 136.85,53.92 137.5,52.15 137.91,51.03 138.91,48.25 138.9,48.17 138.87,48.12 138.8,48.09 
			138.46,48.08 138.21,48.06 134.91,48.07 134.67,48.06 134.41,48.05 134.16,48.07 133.92,48.06 131.77,48.07 130.16,48.04 
			130.1,48 130.08,47.93 130.09,47.85 130.33,47.1 130.84,45.63 131.38,44.1 131.69,43.25 131.77,43.16 131.91,43.12 133.08,43.11 
			133.51,43.09 133.63,43.02 134.64,42.15 135.27,41.6 137.16,39.97 138.55,38.75 139.46,37.96 141.25,36.42 142.17,35.62 
			143.66,34.33 144.91,33.24 145.83,32.44 146.69,31.68 147.5,30.96 147.7,30.8 148.07,30.45 148.14,30.34 148.13,30.28 
			148.08,30.24 147.56,30.21 145.6,30.21 145.17,30.19 144.94,30.21 144.77,30.19 144.62,30.2 144.39,30.21 141.7,30.21 
			141.26,30.19 140.7,30.2 138.55,30.2 137.87,30.16 137.81,30.13 137.81,29.99 138.5,28.06 138.79,27.28 139.42,25.57 
			139.54,25.33 139.65,25.27 143.07,25.25 143.32,25.27 143.8,25.26 147.2,25.25 147.34,25.2 147.41,25.09 148.14,23.21 
			148.35,22.62 148.56,22.11 148.62,22.08 149.51,22.05 153.8,22.03 154.04,22.05 156.19,22.04 156.34,22.08 156.39,22.12 
			156.4,22.18 156.29,22.52 156.03,23.26 155.42,24.98 155.4,25.13 155.43,25.19 155.5,25.22 155.67,25.23 156.02,25.24 
			156.64,25.25 157.37,25.32 158,25.49 158.48,25.74 158.68,25.9 159.04,26.17 159.46,26.73 159.74,27.27 159.89,27.74 
			159.98,28.29 159.98,28.64 159.91,29.1 159.73,29.65 159.63,29.91 159.27,30.45 158.8,30.96 157.74,31.89 156.83,32.68 
			155.29,34.03 155,34.27 154.09,35.07 152.51,36.47 152.43,36.58 152.44,36.71 153.95,38.62 154.95,39.88 154.99,40.02 
			154.97,40.18 154.9,40.38 154.31,42.03 153.68,43.74 153.39,44.61 152.71,46.44 152.16,47.95 152.09,48.06 152.02,48.07 
			151.96,48.06 151.83,47.91 149.81,45.43 149.57,45.13 148.67,44.04 148.55,43.97 148.49,43.98 148.45,44.01 148.31,44.33 
			148.09,44.92 147.53,46.42 147.22,47.29 146.85,48.26 145.96,50.69 145.45,52.06 145.19,52.8 144.78,53.9 144.34,55.08 
			143.71,56.79 143.36,57.77 142.83,59.22 142.22,60.86 141.79,62.04 141.29,63.34 		"/>
	</g>
	<g>
		<polyline class="st0" points="119.44,63.77 118.79,63.84 117.01,63.85 115.97,63.84 111.54,63.87 111.11,63.84 110.87,63.87 
			110.62,63.85 109.46,63.85 104.96,63.88 104.54,63.85 104.39,63.88 104.13,63.87 103.83,63.88 103.66,63.86 103.43,63.88 
			103.19,63.87 102.83,63.86 102.5,63.9 102.16,63.88 101,63.87 96.56,63.9 96.13,63.89 95.17,63.9 94.5,63.89 93.85,63.81 
			93.18,63.59 92.8,63.43 92.27,63.15 92.08,62.98 91.61,62.55 91.19,62.07 90.92,61.62 90.74,61.26 90.54,60.64 90.47,60.26 
			90.42,59.77 90.44,58.97 90.6,58.32 90.77,57.86 91.08,57.27 91.61,56.55 92.46,55.42 93.04,54.64 93.16,54.5 93.7,53.79 
			94.21,53.11 94.71,52.45 96.22,50.45 96.71,49.78 97,49.33 97,49.27 96.96,49.22 96.89,49.2 96.7,49.2 96.45,49.19 94.12,49.19 
			93.69,49.18 90.82,49.18 90.39,49.17 89.86,49.17 89.71,49.14 89.66,49.09 89.66,49.03 89.75,48.75 90.14,47.62 90.93,45.44 
			91.07,45.05 91.31,44.39 91.4,44.29 91.46,44.27 93.52,44.25 94.22,44.26 95.5,44.26 99.94,44.23 100.37,44.25 100.56,44.24 
			100.79,44.25 101.67,44.24 101.89,44.23 105.52,44.22 109.96,44.19 110.21,44.21 110.44,44.2 110.6,44.21 111.22,44.21 
			115.72,44.19 116.16,44.2 116.56,44.18 117,44.19 121.3,44.18 121.55,44.2 121.78,44.18 121.94,44.2 122.26,44.18 122.5,44.2 
			122.75,44.18 122.96,44.19 126.43,44.17 126.87,44.19 128.32,44.19 128.57,44.21 128.62,44.25 128.64,44.3 128.56,44.58 
			127.74,46.89 127.04,48.8 126.93,49.05 126.87,49.08 126.07,49.09 121.63,49.12 121.38,49.11 116.89,49.13 116.65,49.11 
			116.41,49.12 116.16,49.11 115.7,49.12 112.6,49.12 111.49,49.11 111.25,49.14 111.01,49.12 106.68,49.15 106.54,49.2 
			106.37,49.39 105.41,50.67 104.6,51.75 103.83,52.77 103.4,53.34 102.67,54.31 101.93,55.28 101.27,56.16 100.85,56.73 
			100.56,57.15 100.49,57.44 100.48,57.7 100.51,57.94 100.6,58.21 100.84,58.51 101.04,58.67 101.25,58.82 101.39,58.86 
			101.93,58.95 106.43,58.92 106.86,58.93 109.37,58.93 113.87,58.9 114.3,58.92 114.45,58.9 114.98,58.89 115.13,58.86 
			115.16,58.81 115.21,58.59 115.21,58.14 115.19,53.65 115.21,52.44 115.22,52.01 115.27,51.87 115.33,51.84 115.66,51.81 
			116.94,51.8 117.19,51.81 121.32,51.8 121.75,51.81 122.16,51.79 122.41,51.81 122.85,51.82 123.01,51.84 123.06,51.88 123.12,52 
			123.13,53.08 123.13,55.54 123.13,56.74 123.1,56.99 123.12,59.71 123.07,59.93 123.06,60.27 122.94,60.7 122.78,61.16 
			122.48,61.76 122.15,62.24 121.9,62.53 121.33,63.04 121.12,63.19 120.44,63.51 119.82,63.7 119.44,63.77 		"/>
	</g>
	<g>
		<polyline class="st0" points="36.77,63.35 36.65,63.68 36.56,63.77 36.5,63.8 33.35,63.82 33.1,63.8 32.85,63.81 32.62,63.81 
			29.84,63.81 29.41,63.8 28.97,63.79 28.81,63.76 28.78,63.71 28.78,63.58 29.68,61.06 30.06,60 30.29,59.33 30.29,59.21 
			30.24,59.2 30.18,59.23 29.72,59.67 29.32,59.99 28.3,60.6 27.29,60.94 26.06,61.16 21.97,61.19 21.65,61.18 20.31,61.18 
			20.16,61.15 20.11,61.1 20.1,61.03 20.19,60.49 20.77,57.93 21.11,56.39 21.18,56.28 21.25,56.26 22.14,56.25 22.96,56.16 
			23.65,55.95 23.96,55.81 24.35,55.56 24.87,55.1 25.68,54.11 27.19,52.29 28.77,50.36 30.03,48.84 32.07,46.38 32.64,45.68 
			33.08,45.13 33.85,44.2 35.71,41.92 36.63,40.77 36.69,40.65 36.68,40.59 36.63,40.56 36.31,40.52 35.77,40.52 34.11,40.51 
			31.42,40.52 30.99,40.51 29.39,40.5 29.26,40.45 29.22,40.41 29.23,40.27 29.83,38.62 30.14,37.77 30.85,35.87 30.97,35.63 
			31.1,35.58 32.35,35.57 32.92,35.59 33.17,35.56 33.41,35.58 34.48,35.58 38.97,35.54 39.07,35.46 39.19,35.14 39.7,33.76 
			39.98,32.95 39.98,32.8 39.93,32.74 39.79,32.7 38.27,32.71 38.02,32.68 35.72,32.69 35.14,32.64 34.73,32.52 34.25,32.27 
			33.81,31.92 33.38,31.44 33.16,31.03 32.97,30.5 32.92,30.19 32.95,29.3 33.08,28.81 33.97,26.38 34.25,25.59 34.75,24.29 
			34.86,24.03 34.98,23.97 36.06,23.96 37.72,23.96 41.16,23.95 41.59,23.97 41.72,24.02 41.74,24.07 41.71,24.21 41.21,25.6 
			40.57,27.47 40.56,27.61 40.58,27.67 40.64,27.7 40.82,27.71 41.72,27.73 41.86,27.7 41.91,27.66 41.98,27.54 43.13,24.48 
			43.54,23.37 44.02,22.13 44.06,22.09 44.2,22.05 45.01,22.04 45.92,22.06 46.24,22.03 46.49,22.05 50.2,22.03 51.55,22.06 
			51.81,22.06 51.86,22.11 51.88,22.17 51.82,22.38 51.06,24.49 50.46,26.14 49.99,27.46 49.98,27.61 50,27.67 50.06,27.7 
			50.49,27.72 52.73,27.71 53.16,27.73 55.57,27.74 55.71,27.78 55.75,27.82 55.75,27.89 55.18,29.49 54.49,31.39 54.15,32.31 
			54.01,32.62 53.95,32.65 53.06,32.67 52.81,32.69 52.57,32.68 48.23,32.7 48.1,32.74 48.06,32.79 47.94,33.04 47.58,34.02 
			47.12,35.28 47.11,35.43 47.14,35.5 47.19,35.54 47.26,35.56 47.89,35.55 48.33,35.56 48.56,35.56 48.78,35.56 51.79,35.55 
			52.04,35.58 52.94,35.57 53.08,35.61 53.11,35.67 53.12,35.75 53.01,36.1 51.93,39.06 51.71,39.66 51.4,40.42 51.29,40.48 
			50.65,40.51 50.08,40.49 49.6,40.52 49.35,40.5 45.34,40.52 45.21,40.57 45.17,40.62 45.06,40.86 45.06,41.78 45.11,42.09 
			45.12,43.25 45.14,43.68 45.16,44.21 45.19,44.46 45.2,45.87 45.25,46.26 45.28,47.68 45.31,48.11 45.33,48.54 45.34,49.25 
			45.37,49.58 45.35,50 45.4,50.31 45.41,51.47 45.44,51.9 45.45,52.25 45.47,52.68 45.5,53.65 45.53,54.2 45.55,54.45 45.56,55.16 
			45.71,55.64 45.86,55.85 46.06,56.02 46.29,56.14 46.57,56.21 47.46,56.22 47.69,56.26 47.74,56.31 47.75,56.37 47.72,56.51 
			47.25,57.83 46.66,59.4 46.08,60.97 45.98,61.14 45.84,61.18 44.85,61.19 44.29,61.17 43.98,61.2 43.09,61.11 42.23,60.89 
			41.24,60.45 40.42,59.92 40.22,59.75 39.79,59.29 39.45,58.81 39.11,58.17 39.03,57.88 38.96,57.77 38.91,57.77 38.86,57.81 
			38.63,58.39 38.04,59.95 37.56,61.27 36.93,62.97 36.77,63.35 		"/>
	</g>
	<g>
		<polyline class="st0" points="14.18,63.36 14.06,63.66 13.99,63.76 13.93,63.79 10.43,63.81 10.21,63.82 9.68,63.83 9.25,63.81 
			6.74,63.82 6.24,63.77 6.19,63.74 6.18,63.68 6.19,63.61 7.24,60.7 7.97,58.66 8.34,57.58 8.33,57.51 8.3,57.46 8.23,57.45 
			8.09,57.49 7.6,57.63 7.19,57.69 6.46,57.76 5.79,57.81 3.55,57.84 3.12,57.82 1.69,57.82 1.55,57.78 1.51,57.73 1.5,57.64 
			1.73,56.44 2.19,54.3 2.48,53.07 2.54,52.95 2.6,52.91 3.49,52.89 3.87,52.82 4.16,52.75 4.64,52.42 5.17,51.77 5.54,51.25 
			5.65,51.09 5.83,50.82 6.18,50.27 6.54,49.73 6.89,49.19 7.14,48.81 7.31,48.53 7.43,48.38 7.7,47.94 8.08,47.4 8.49,46.74 
			8.61,46.59 8.99,45.98 10.73,43.32 12.51,40.6 13.01,39.85 13.19,39.58 13.94,38.44 14.08,38.22 14.83,37.08 15.72,35.73 
			16.71,34.2 17.05,33.64 17.17,33.41 17.16,33.35 17.11,33.31 17.04,33.3 16.85,33.3 16.51,33.28 14.54,33.28 13.6,33.27 
			13.37,33.28 11.14,33.27 10.79,33.25 10.73,33.22 10.7,33.16 10.72,33 11.24,31.54 11.65,30.42 12.29,28.65 12.41,28.41 
			12.53,28.35 17.02,28.32 17.81,28.33 18.3,28.33 18.91,28.33 19.05,28.29 19.15,28.2 19.23,28.02 20.16,25.53 20.81,23.76 
			21.4,22.2 21.47,22.09 21.53,22.06 23.76,22.05 24.49,22.05 24.79,22.03 25.03,22.05 27.82,22.03 28.25,22.05 29.05,22.06 
			29.21,22.08 29.27,22.12 29.29,22.18 29.28,22.25 28.97,23.11 28.78,23.64 28.25,25.09 27.49,27.19 27.16,28.13 27.16,28.25 
			27.29,28.31 28.01,28.3 28.44,28.32 30.41,28.32 30.85,28.33 31.37,28.34 31.53,28.37 31.57,28.41 31.57,28.48 31.51,28.69 
			30.85,30.54 29.95,33.05 29.85,33.22 29.72,33.27 27.35,33.28 26.76,33.28 26.34,33.28 26.03,33.29 25.49,33.3 25.35,33.34 
			25.32,33.4 25.31,33.66 25.35,34.17 25.51,36 25.57,36.49 25.58,36.93 25.62,37.25 25.64,37.59 25.69,38.08 25.71,38.52 
			25.76,38.83 25.79,39.44 25.84,39.93 25.89,40.34 25.9,40.67 25.95,41.08 25.97,41.52 26.02,41.83 26.04,42.27 26.08,42.58 
			26.1,43.02 26.16,43.23 26.17,43.59 26.22,44.07 26.32,44.43 26.44,44.67 26.66,44.89 26.95,45.05 27.23,45.13 28.24,45.15 
			28.37,45.19 28.41,45.24 28.4,45.37 28.18,45.97 27.58,47.61 27.28,48.39 26.92,49.36 26.75,49.83 26.65,50 26.53,50.06 
			24.56,50.08 23.81,50.02 23.04,49.9 22.68,49.81 22.2,49.66 21.41,49.28 21.13,49.11 20.5,48.57 20.23,48.22 20.1,47.98 
			20.02,47.88 19.96,47.86 19.91,47.89 19.87,47.95 19.83,48.09 19.18,49.78 18.77,50.9 17.76,53.65 16.91,55.95 16.19,57.91 
			15.68,59.29 15.27,60.4 14.51,62.51 14.18,63.36 		"/>
	</g>
	<g>
		<polyline class="st0" points="48.88,62.75 48.33,62.83 48.18,62.83 48.13,62.79 48.11,62.73 48.2,62.38 48.83,60.58 49.35,59.13 
			49.64,58.26 49.75,58.01 49.85,57.92 51.19,57.72 55.13,57.15 55.25,57.09 55.32,56.98 55.8,55.66 56.32,54.29 57.11,52.13 
			58.27,48.97 59.16,46.55 59.9,44.5 60.23,43.59 60.31,43.24 60.29,43.19 60.23,43.16 59.81,43.13 57.84,43.14 57.41,43.12 
			55.72,43.11 55.58,43.06 55.56,43.02 55.57,42.89 56.48,40.3 56.98,38.92 57.23,38.27 57.34,38.19 57.47,38.17 57.78,38.16 
			58.12,38.17 58.87,38.17 62.01,38.16 62.44,38.17 63.96,38.17 65.59,38.18 68.28,38.17 68.53,38.2 69.69,38.19 71.62,38.2 
			73.14,38.2 74.23,38.21 75.83,38.22 75.98,38.26 76.01,38.31 76,38.46 75.52,39.78 75.37,40.25 74.4,42.87 74.29,43.12 
			74.15,43.16 73.62,43.18 73.19,43.17 70.15,43.16 69.93,43.16 69.66,43.15 68.67,43.15 68.43,43.18 68.33,43.27 67.51,45.49 
			66.66,47.78 65.96,49.69 65.43,51.12 64.68,53.16 63.78,55.68 63.79,55.83 63.84,55.87 63.92,55.88 66.08,55.59 69.11,55.17 
			69.35,55.15 69.41,55.18 69.43,55.23 69.36,55.51 68.46,58.02 68.2,58.75 67.76,59.92 67.66,60.01 67.52,60.05 65.71,60.31 
			61.84,60.87 57.89,61.45 55.45,61.81 52.77,62.2 48.88,62.75 		"/>
	</g>
	<path class="st0" d="M311.2,15.24l-0.05-0.04l-0.16-0.02l-1.43,0.01L309,15.16l-4.44,0.03h-1.52l-0.93,0.01l-0.93,0.01l-0.23-0.01
		l-0.16,0.02l-0.43-0.02l-4.5,0.03h-1.16l-0.23-0.01h-0.23l-1.69-0.01l-0.07-0.02l-0.04-0.05l-0.02-0.06l0.13-0.49l0.43-1.19
		l0.16-0.46l0.49-1.31l0.73-2.04l0.95-2.64l0.18-0.55V6.32l-0.04-0.05l-0.23-0.04l-3.05,0.01l-0.16-0.02l-0.24,0.03l-0.33-0.03
		l-4.43,0.02l-0.25-0.02l-0.33,0.04l-0.33-0.03l-2.94,0.02l-0.56-0.01l-0.43-0.02l-1.16,0.02l-0.13,0.05l-0.07,0.11l-0.68,1.83
		l-0.62,1.71l-0.78,2.09l-0.28,0.79l-0.1,0.26l-0.54,1.43l-0.14,0.4l-0.12,0.24l-0.05,0.04l-3.55,0.02l-0.58-0.02l-2.96,0.02
		l-0.25-0.02l-3.05,0.01l-0.23-0.01l-0.34,0.02l-0.33-0.03l-3.8,0.01l-0.48,0.01l-0.34-0.02l-0.22,0.02l-4.49,0.02h-0.36l-0.11,0.07
		l-0.47,1.24l-0.27,0.71l-0.55,1.52l-0.41,1.11L253.94,22l-0.01,0.07l0.02,0.06l0.05,0.04l0.16,0.02l1.16-0.01l0.41,0.01l0.43,0.01
		l3.59-0.01H260l0.95,0.01l2.6-0.01l0.58,0.01l3.32-0.01l0.25,0.02h0.8l0.14,0.04l0.04,0.04l0.01,0.05l-0.2,0.35l-0.49,0.67
		l-0.64,0.89l-0.64,0.89l-0.11,0.16l-0.35,0.46l-0.56,0.79l-1.21,1.66l-0.8,1.09l-0.57,0.78l-0.82,1.15l-0.6,0.83l-1.06,1.46
		l-0.91,1.25l-0.46,0.62l-0.53,0.73l-0.61,0.83l-0.94,1.31l-0.65,0.89L256,39.94l-0.97,1.36l-0.83,1.15l-0.6,0.83l-0.68,0.94
		l-0.94,1.31L251.64,46l-0.9,1.25l-0.99,1.35l-0.68,0.94l-0.38,0.51l-0.18,0.27l-0.68,0.94l-0.38,0.52l-0.12,0.16l-0.1,0.17
		l-0.35,0.46l-1.21,1.67l-0.79,1.09l-0.23,0.31l-0.11,0.07l-3.31,0.04l-0.12,0.07l-0.14,0.31l-0.26,0.73l-0.48,1.31l-0.37,0.98
		l-0.47,1.32l-0.65,1.78l-0.11,0.35l0.01,0.07l0.04,0.06l0.14,0.04h1.69l0.42,0.01l4.49-0.02l0.33,0.02l0.32-0.02l0.43,0.02
		l3.59-0.02h0.23l0.8-0.1l0.45-0.09l0.75-0.33l0.62-0.46l0.22-0.23l0.46-0.53l0.37-0.53l0.27-0.36l1.32-1.83l0.38-0.52l0.27-0.36
		l0.2-0.26l0.11-0.07l0.25-0.02l3.86-0.01l0.43,0.01l0.89,0.01l0.07,0.02l0.05,0.04l0.03,0.05l-0.02,0.14l-0.4,1.13l-0.56,1.51
		l-0.43,1.19l-0.32,0.85l-0.68,1.93l-0.02,0.14l0.01,0.06l0.12,0.05l0.43,0.02l2.42-0.01l0.66-0.01l0.25,0.02l0.22-0.01h0.25
		l0.16-0.02l0.34,0.02l3.23-0.01l0.44-0.01l2.18,0.01l3.87-0.03l0.12-0.05l0.18-0.39l0.46-1.24l0.42-1.19l0.2-0.52l0.43-1.19
		l0.89-2.35l0.06-0.12l0.05-0.04l0.14-0.04l4.04-0.01h0.15h0.23l2.57-0.01l0.13,0.05l0.05,0.13l0.05,0.31l0.01,0.62l0.02,0.25
		l0.02,0.43l0.04,0.82l0.06,0.47l0.22,0.6l0.24,0.47l0.23,0.31l0.21,0.24l0.29,0.25l0.25,0.2l0.55,0.27l0.33,0.11l0.35,0.1
		l1.08,0.08l4.5-0.03l0.53,0.02l0.22-0.01l0.26-0.01l1.34-0.01l2.2-0.01l0.07-0.02l0.08-0.1l0.55-1.42l0.31-0.86l0.29-0.79
		l0.49-1.31l0.52-1.45l0.27-0.72l0.04-0.15l-0.01-0.07l-0.04-0.05l-0.14-0.04h-2.18l-0.25-0.02l-1.62,0.01l-0.14-0.04l-0.08-0.09
		l-0.04-0.41l-0.01-0.71l-0.05-0.3l0.01-0.24l-0.02-0.25L295.39,53l-0.02-0.25l-0.02-0.35l-0.02-0.43l-0.04-0.81l-0.03-0.33
		l-0.01-1.07l-0.05-0.31l-0.03-1.61l-0.05-0.36l-0.02-1.16l-0.04-0.5l-0.02-0.94l-0.04-0.62l-0.02-0.43l-0.01-0.8l-0.05-0.31
		l-0.02-1.07l-0.02-0.25l-0.02-0.43l-0.03-0.7l-0.02-0.43l-0.03-0.51l-0.02-1.07l-0.05-0.91l-0.02-0.44l-0.02-0.43l-0.02-0.26
		l-0.02-0.43l-0.01-0.62l-0.04-0.46l-0.02-0.68l-0.02-0.43l-0.03-0.55l-0.03-0.81l-0.02-0.43l-0.01-0.26l-0.02-0.43l-0.02-0.26
		l-0.02-0.43l-0.04-0.51l-0.01-0.44l-0.03-0.25l0.01-0.22l-0.04-0.41l-0.02-0.98L294.2,27l-0.02-0.86l-0.02-0.43l-0.04-0.51
		l-0.01-0.98l-0.05-0.31l-0.01-0.3v-1.25l0.04-0.05l0.12-0.06l0.43-0.02l4.5-0.03l0.79,0.01l0.59,0.01l0.22-0.01l4.49-0.02
		l3.41-0.03l0.07-0.02l0.08-0.1l0.36-0.99l0.39-1.04l0.25-0.65l0.68-1.91l0.53-1.45l0.2-0.61l0.01-0.08L311.2,15.24z M267.42,42.69
		l-0.49,1.39l-1.15,3.16l-0.83,2.23l-0.16,0.38l-0.08,0.1l-0.15,0.03h-0.52H262l-0.16-0.02l-0.06-0.03l-0.03-0.05l0.07-0.19
		l0.18-0.27l0.79-1.1l0.54-0.72l0.68-0.94l1.66-2.29l0.57-0.78l0.95-1.3l0.43-0.56l0.05-0.02l0.05,0.01l0.02,0.05L267.42,42.69z
		 M284.01,49.9l-0.12,0.07l-0.16,0.02l-0.32-0.03l-0.19,0.03l-0.32-0.02l-0.22,0.01l-2.5-0.01l-0.42-0.04l-0.05-0.03l-0.03-0.05
		l0.02-0.12l0.32-0.94l0.65-1.78l0.15-0.39l0.55-1.52l0.44-1.17l0.47-1.33l1-2.68l0.13-0.32l0.08-0.1h0.05l0.03,0.05l0.06,0.58
		l0.02,0.43l0.03,0.43l0.04,0.41l0.02,0.71l0.02,0.36l0.04,0.46l0.02,0.82l0.04,0.32l0.02,1.07l0.05,0.4l0.02,1.06l0.04,0.59
		l0.03,1.33l0.04,0.31l0.01,0.92L284.01,49.9z"/>
	<g>
		<polyline class="st0" points="403.15,42.76 403.8,42.75 403.91,42.68 404,42.5 404.55,40.99 405.07,39.62 405.38,38.76 
			406.15,36.67 407.05,34.24 407.26,33.65 407.5,32.99 408.35,30.7 409.03,28.78 409.14,28.44 409.12,28.38 409.07,28.33 
			408.93,28.29 406.59,28.31 406.17,28.29 405.93,28.32 405.47,28.3 403.38,28.3 398.97,28.33 394.47,28.36 394.04,28.35 
			393.81,28.36 393.56,28.34 393.32,28.36 393.05,28.35 392.64,28.38 392.39,28.35 392.15,28.37 391.74,28.35 387.33,28.38 
			382.94,28.4 381.97,28.41 381.26,28.4 380.01,28.4 375.58,28.42 375.15,28.4 374.72,28.42 374.57,28.42 373.77,28.41 
			369.27,28.44 369.02,28.42 364.53,28.44 363.99,28.42 363.83,28.44 363.6,28.42 363.25,28.44 363.02,28.43 362.77,28.44 
			362.38,28.43 362.23,28.47 362.15,28.57 361.95,29.08 361.21,31.04 360.72,32.34 359.5,35.61 358.88,37.32 358.38,38.62 
			357.63,40.65 357.1,42.09 356.89,42.7 356.89,42.77 356.92,42.83 356.98,42.86 357.32,42.88 359.05,42.88 359.87,42.89 
			363.47,42.89 363.94,42.91 368.44,42.88 368.87,42.89 369.94,42.9 374.44,42.87 374.77,42.9 375.28,42.86 375.52,42.88 
			377.3,42.87 380.97,42.86 381.52,42.87 383.92,42.86 388.36,42.84 389.19,42.84 389.5,42.82 389.92,42.85 394.33,42.82 
			398.74,42.79 403.15,42.76 		"/>
	</g>
	<path class="st0" d="M133.68,36.12l-0.05-0.04l-0.07-0.02l-0.43-0.02h-1.79l-0.4-0.05l-0.29-0.07l-0.3-0.15l-0.25-0.11l-0.16-0.11
		l-0.13-0.14l-0.26-0.28l-0.25-0.47l-0.31-1.13l-0.52-1.91l-0.88-3.28l-0.26-0.92l-0.6-2.3l-0.62-2.27l-0.21-0.7l-0.11-0.07h-1.88
		l-0.25-0.02h-0.68l-4.5,0.03l-0.25-0.02l-0.64,0.02l-0.23-0.02l-0.25,0.03l-0.16-0.02l-2.51,0.01l-0.68-0.01l-1.19,0.01l-0.98-0.01
		l-0.14,0.05l-0.45,0.36l-2.42,2.08l-1.45,1.25l-1.07,0.91l-0.82,0.71l-1.79,1.54l-0.88,0.74l-0.72,0.62l-1.07,0.91l-2.42,2.08
		l-1.45,1.25l-0.64,0.54l-0.58,0.41l-0.6,0.31L94.55,36l-0.38,0.07l-0.51,0.04l-0.8,0.01l-0.33-0.02l-0.25,0.02l-0.35,0.02
		l-0.16,0.02l-0.08,0.1l-0.14,0.4l-0.32,0.85l-1.18,3.31l-0.02,0.13l0.04,0.05l0.13,0.04h0.98l0.83,0.01l0.52,0.01l3.52-0.01
		l0.35-0.01l0.25,0.02l0.34-0.02l0.64-0.01l0.43,0.02l1.32-0.13l1.2-0.33l0.39-0.16l0.97-0.48l0.34-0.2l0.51-0.39l0.16-0.11
		l1.04-0.85l0.13-0.05l2.6-0.03l4.43-0.02l0.44,0.01l0.45-0.01l4.43-0.02l0.43,0.02l4.04-0.02l1.41,0.02l0.14,0.04l0.04,0.05
		l0.05,0.13l0.38,0.79l0.31,0.41l0.35,0.37l0.57,0.41l0.61,0.3l0.56,0.16l0.55,0.07L129.5,41l0.34,0.03l0.53-0.04l0.25,0.02
		l0.62,0.01l0.65-0.02l0.12-0.06l0.04-0.05l0.22-0.59l0.43-1.18l1-2.87L133.68,36.12z M121.09,33.25l-0.04,0.05l-0.13,0.05
		l-0.6,0.01l-2.87,0.01l-0.25-0.02l-3.86,0.02l-0.38-0.01l-0.4,0.01l-0.25-0.02h-1.88l-0.33-0.04l-0.03-0.05l0.05-0.11l1-0.9
		l1.31-1.12l1.99-1.71l0.49-0.41l0.94-0.77l0.22-0.05l1.25,0.01l0.39-0.01l0.25,0.02h1.7l0.07,0.02l0.08,0.1l0.2,0.7l0.58,2.13
		l0.16,0.57l0.23,0.85l0.13,0.51l0.01,0.08L121.09,33.25z"/>
	<path class="st0" d="M255.67,9.23l-0.06-0.03h-0.8l-0.25-0.02l-0.77,0.01h-1.88l-0.34-0.02l-0.24,0.02l-0.16-0.01l-0.38-0.01
		l-3.95,0.02l-0.51-0.03l-0.34,0.04l-0.24-0.02l-2.6,0.01l-1.36-0.01l-0.35-0.01L241.1,9.2l-0.34-0.01l-1.07-0.01l-4.44,0.03
		L235,9.19l-0.23,0.02h-0.16l-0.43-0.02l-4.44,0.03l-0.95-0.01h-0.23h-1.16l-4.49,0.02l-0.31,0.01l-0.33-0.03l-0.25,0.03l-0.24-0.02
		h-0.98l-4.5,0.03l-0.25-0.02l-0.53,0.02l-0.23-0.01l-4.5,0.02l-0.93,0.07l-0.58,0.14l-0.33,0.12l-0.49,0.24l-0.56,0.34l-0.59,0.49
		l-0.49,0.5l-0.44,0.63l-0.26,0.56l-0.25,0.65l-0.39,1.04l-1.01,2.75l-0.76,2.11l-0.41,1.12l-0.85,2.3l-0.45,1.25l-0.58,1.57
		l-0.56,1.51l-0.4,1.04l-0.47,1.31l-0.63,1.7l-0.59,1.66l-0.32,0.84l-0.74,2.05L197.03,37l-0.53,1.44l-0.71,1.97l-0.73,1.97
		l-0.38,1.05L194,45.28l-0.22,0.59l-0.46,1.25l-0.45,1.25l-0.44,1.18l-0.46,1.25l-0.65,1.76l-0.74,2.04l-0.42,1.11l-0.53,1.45
		l-0.94,2.56l-0.32,0.85l-0.54,1.52l-0.06,0.22l0.02,0.07l0.05,0.04l0.24,0.03h2.02l0.32,0.01l2.9-0.01l0.43,0.02l4.4-0.02
		l0.34,0.02l0.33-0.02l0.62,0.02l0.42-0.02l0.16,0.02l1.97-0.01l0.43-0.02l0.98-0.02l0.25,0.02l0.64-0.01l4.4-0.02l0.54,0.02
		l4.44-0.02l1.36,0.01l0.83,0.01l4.5-0.03l0.43,0.01l0.35,0.01l0.43,0.01l2.63-0.01l1.08,0.02l4.48-0.01l0.3,0.01l2.6-0.01h0.33
		l0.59-0.04l0.7-0.21l0.62-0.28l0.35-0.19l0.38-0.25l0.54-0.46l0.47-0.51l0.5-0.76l0.25-0.47l0.5-1.38l0.8-2.16l0.63-1.7l0.31-0.86
		l0.44-1.17L240.8,50l0.29-0.79l0.57-1.58l0.54-1.43l0.14-0.4l1.01-2.75l0.35-0.99l0.63-1.7l0.63-1.7l0.71-1.98l0.2-0.51l0.65-1.78
		l0.56-1.5l0.47-1.33l0.34-0.91l0.53-1.45l0.7-1.9l0.24-0.65l0.59-1.57l0.43-1.18l0.56-1.51l0.34-0.92l0.43-1.19l0.1-0.26l0.53-1.44
		l0.56-1.51l0.47-1.31l0.78-2.09l0.65-1.78l0.85-2.39l0.04-0.22L255.67,9.23z M230.2,38.56l-0.11,0.34l-0.28,0.79l-0.41,1.12
		l-0.86,2.36l-0.7,1.9l-0.53,1.45l-1.21,3.28l-0.32,0.85l-0.89,2.42l-0.78,2.09l-0.1,0.17l-0.12,0.05h-0.6l-3.05,0.01l-1.24,0.01
		l-0.25-0.02l-4.5,0.03l-1-0.01l-0.34,0.01l-0.25-0.02l-4.4,0.02l-0.57,0.01l-0.43-0.02h-1.88l-0.24-0.03l-0.04-0.05l-0.01-0.17
		l0.4-1.13l0.37-0.97l0.23-0.66l0.28-0.8l0.73-1.96l0.56-1.51l0.32-0.85l0.58-1.58l0.41-1.12l0.48-1.31l0.7-1.9l0.53-1.44l0.55-1.43
		l0.03-0.06l0.11-0.06l4.12-0.03l0.25,0.02l0.33-0.04l0.26,0.01l0.43,0.02l4.04-0.02l0.15,0.01l0.43-0.02l1,0.01h0.4h0.23l3.61-0.01
		l0.25,0.02l0.72-0.03l0.33,0.02l1.79-0.01l0.41,0.04l0.05,0.04V38.56z M238.34,16.48l-0.28,0.81l-0.17,0.46l-0.64,1.78l-0.75,2.03
		l-0.65,1.77l-0.41,1.12l-1.07,2.88l-0.44,1.17l-0.26,0.73l-0.7,1.9l-0.11,0.16l-0.15,0.03h-0.54l-4.22,0.02l-0.34-0.01l-0.63,0.03
		l-0.33-0.02l-4.5,0.03l-0.4-0.01l-0.59-0.01l-4.37,0.02l-0.55-0.01L216,31.35l-0.43-0.02h-1.43L214,31.29l-0.04-0.04l0.04-0.2
		l0.22-0.68l0.24-0.67l0.2-0.52l0.77-2.11l0.47-1.23l0.55-1.52l0.4-1.04l0.35-1l0.76-2.03l0.6-1.64l0.49-1.31l0.35-0.91l0.08-0.1
		l0.13-0.05l3.94-0.02l0.23,0.01l0.5-0.02l0.9,0.02l4.39-0.02l0.25,0.01l0.38,0.01l4.49-0.02l0.8,0.01l0.34-0.02l0.33,0.03h1.97
		l0.16,0.02l0.07,0.02l0.03,0.06L238.34,16.48z"/>
	<path class="st0" d="M460.69,12.49l-0.03-0.33l-0.03-0.33l-0.04-0.41l-0.13-0.41L460.12,10l-0.58-1.05l-0.63-0.81l-0.29-0.33
		l-0.83-0.7l-0.15-0.12l-0.58-0.32l-0.59-0.3l-0.67-0.23l-0.61-0.19l-1.07-0.1h-0.74l-1.07,0.1l-1.18,0.35l-0.6,0.3l-0.64,0.35
		l-0.85,0.68l-0.32,0.32l-0.74,0.88l-0.25,0.47l-0.4,0.77l-0.25,0.74l-0.17,0.55l-0.02,0.42l-0.04,0.41l-0.04,0.32l-0.01,0.43
		l0.05,0.31l0.01,0.44l0.06,0.48l0.21,0.7l0.19,0.53l0.64,1.25l0.82,0.98l0.59,0.49l0.56,0.43l1.1,0.61l1.3,0.41l1.04,0.12
		l0.48,0.02l1.22-0.13l0.63-0.19l0.82-0.27l1.05-0.57l0.47-0.35l0.34-0.29l0.26-0.19l0.33-0.4l0.59-0.75l0.58-1.04l0.34-1l0.1-0.35
		l0.17-1.46L460.69,12.49z M456.17,13.33l-0.19,0.53l-0.16,0.29l-0.37,0.44l-0.43,0.3l-0.43,0.2l-0.43,0.12l-0.33,0.03l-0.43-0.01
		l-0.24-0.03l-0.46-0.17l-0.4-0.22l-0.35-0.28l-0.26-0.29l-0.17-0.28l-0.22-0.5l-0.05-0.22v-1.06l0.19-0.53l0.25-0.38l0.35-0.37
		l0.48-0.32l0.24-0.13l0.49-0.14l0.41-0.04l0.43,0.02l0.37,0.08l0.38,0.16l0.35,0.19l0.31,0.23l0.28,0.35l0.17,0.28l0.15,0.31
		l0.1,0.34l0.07,0.47L456.17,13.33z"/>
	<path class="st0" d="M366.46,11.79l-0.05-0.4l-0.42-1.3l-0.59-1.12l-0.92-1.15L363.49,7l-0.76-0.41l-0.47-0.25l-0.47-0.16
		l-0.91-0.25l-1.37-0.14L358.3,5.9l-0.38,0.07l-1.19,0.35l-1.22,0.67l-0.98,0.82l-0.29,0.34l-0.59,0.75l-0.35,0.64l-0.28,0.53
		l-0.12,0.33l-0.3,0.95l-0.01,0.17l-0.04,0.32l-0.01,0.43l-0.05,0.22l-0.01,0.53l0.03,0.33l0.03,0.51l0.07,0.47l0.27,0.91l0.14,0.41
		l0.47,0.88l0.25,0.39l0.62,0.74l0.21,0.23l0.93,0.78l0.91,0.52l0.5,0.23l1.16,0.36l0.47,0.07l0.65,0.06l0.39,0.03l0.99-0.1
		l0.47-0.07l1.16-0.38l0.89-0.46l0.4-0.23l0.94-0.77l0.58-0.67l0.4-0.51l0.38-0.69l0.21-0.43l0.4-1.21l0.05-0.4l0.04-0.32l0.04-0.32
		l0.04-0.58L366.46,11.79z M361.87,13.36l-0.1,0.35l-0.25,0.46l-0.27,0.37l-0.18,0.18l-0.31,0.23l-0.45,0.19l-0.43,0.11l-0.33,0.04
		l-0.45-0.03l-0.43-0.11l-0.49-0.23l-0.22-0.14l-0.35-0.37l-0.18-0.27l-0.22-0.42l-0.11-0.34l-0.02-0.25l0.01-0.62l0.05-0.31
		l0.15-0.38l0.16-0.29l0.28-0.35l0.38-0.34l0.47-0.25l0.41-0.13l0.43-0.02l0.16-0.01l0.42,0.03l0.47,0.16l0.4,0.23l0.25,0.2
		l0.34,0.38l0.22,0.32l0.17,0.47l0.04,0.23l0.04,0.51L361.87,13.36z"/>
</g>
</svg>
